[Header]
FileType HTR
DataType HTRS
FileVersion 1
NumSegments 64
NumFrames 4
DataFrameRate 30
EulerRotationOrder ZYX
CalibrationUnits mm
RotationUnits Degrees
GlobalAxisofGravity Y
BoneLengthAxis Y
ScaleFactor 1.0
[SegmentNames&Hierarchy]
Hips	GLOBAL
Spine	Hips
Spine1	Spine
Spine2	Spine1
Neck	Spine2
Head	Neck
LeftEye	Head
RightEye	Head
LeftShoulder	Spine2
LeftArm	LeftShoulder
LeftForeArm	LeftArm
LeftHand	LeftForeArm
LeftHandThumb1	LeftHand
LeftHandThumb2	LeftHandThumb1
LeftHandThumb3	LeftHandThumb2
LeftHandThumb4	LeftHandThumb3
LeftHandIndex1	LeftHand
LeftHandIndex2	LeftHandIndex1
LeftHandIndex3	LeftHandIndex2
LeftHandIndex4	LeftHandIndex3
LeftHandMiddle1	LeftHand
LeftHandMiddle2	LeftHandMiddle1
LeftHandMiddle3	LeftHandMiddle2
LeftHandMiddle4	LeftHandMiddle3
LeftHandRing1	LeftHand
LeftHandRing2	LeftHandRing1
LeftHandRing3	LeftHandRing2
LeftHandRing4	LeftHandRing3
LeftHandPinky1	LeftHand
LeftHandPinky2	LeftHandPinky1
LeftHandPinky3	LeftHandPinky2
LeftHandPinky4	LeftHandPinky3
RightShoulder	Spine2
RightArm	RightShoulder
RightForeArm	RightArm
RightHand	RightForeArm
RightHandPinky1	RightHand
RightHandPinky2	RightHandPinky1
RightHandPinky3	RightHandPinky2
RightHandPinky4	RightHandPinky3
RightHandRing1	RightHand
RightHandRing2	RightHandRing1
RightHandRing3	RightHandRing2
RightHandRing4	RightHandRing3
RightHandMiddle1	RightHand
RightHandMiddle2	RightHandMiddle1
RightHandMiddle3	RightHandMiddle2
RightHandMiddle4	RightHandMiddle3
RightHandIndex1	RightHand
RightHandIndex2	RightHandIndex1
RightHandIndex3	RightHandIndex2
RightHandIndex4	RightHandIndex3
RightHandThumb1	RightHand
RightHandThumb2	RightHandThumb1
RightHandThumb3	RightHandThumb2
RightHandThumb4	RightHandThumb3
LeftUpLeg	Hips
LeftLeg	LeftUpLeg
LeftFoot	LeftLeg
LeftToeBase	LeftFoot
RightUpLeg	Hips
RightLeg	RightUpLeg
RightFoot	RightLeg
RightToeBase	RightFoot
[BasePosition]
Hips	0	0	0	0	0	0	1
Spine	0	0	0	0	0	0	1
Spine1	0	0	0	0	0	0	1
Spine2	0	0	0	0	0	0	1
Neck	0	0	0	0	0	0	1
Head	0	0	0	0	0	0	1
LeftEye	0	0	0	0	0	0	1
RightEye	0	0	0	0	0	0	1
LeftShoulder	0	0	0	0	0	0	1
LeftArm	0	0	0	0	0	0	1
LeftForeArm	0	0	0	0	0	0	1
LeftHand	0	0	0	0	0	0	1
LeftHandThumb1	0	0	0	0	0	0	1
LeftHandThumb2	0	0	0	0	0	0	1
LeftHandThumb3	0	0	0	0	0	0	1
LeftHandThumb4	0	0	0	0	0	0	1
LeftHandIndex1	0	0	0	0	0	0	1
LeftHandIndex2	0	0	0	0	0	0	1
LeftHandIndex3	0	0	0	0	0	0	1
LeftHandIndex4	0	0	0	0	0	0	1
LeftHandMiddle1	0	0	0	0	0	0	1
LeftHandMiddle2	0	0	0	0	0	0	1
LeftHandMiddle3	0	0	0	0	0	0	1
LeftHandMiddle4	0	0	0	0	0	0	1
LeftHandRing1	0	0	0	0	0	0	1
LeftHandRing2	0	0	0	0	0	0	1
LeftHandRing3	0	0	0	0	0	0	1
LeftHandRing4	0	0	0	0	0	0	1
LeftHandPinky1	0	0	0	0	0	0	1
LeftHandPinky2	0	0	0	0	0	0	1
LeftHandPinky3	0	0	0	0	0	0	1
LeftHandPinky4	0	0	0	0	0	0	1
RightShoulder	0	0	0	0	0	0	1
RightArm	0	0	0	0	0	0	1
RightForeArm	0	0	0	0	0	0	1
RightHand	0	0	0	0	0	0	1
RightHandPinky1	0	0	0	0	0	0	1
RightHandPinky2	0	0	0	0	0	0	1
RightHandPinky3	0	0	0	0	0	0	1
RightHandPinky4	0	0	0	0	0	0	1
RightHandRing1	0	0	0	0	0	0	1
RightHandRing2	0	0	0	0	0	0	1
RightHandRing3	0	0	0	0	0	0	1
RightHandRing4	0	0	0	0	0	0	1
RightHandMiddle1	0	0	0	0	0	0	1
RightHandMiddle2	0	0	0	0	0	0	1
RightHandMiddle3	0	0	0	0	0	0	1
RightHandMiddle4	0	0	0	0	0	0	1
RightHandIndex1	0	0	0	0	0	0	1
RightHandIndex2	0	0	0	0	0	0	1
RightHandIndex3	0	0	0	0	0	0	1
RightHandIndex4	0	0	0	0	0	0	1
RightHandThumb1	0	0	0	0	0	0	1
RightHandThumb2	0	0	0	0	0	0	1
RightHandThumb3	0	0	0	0	0	0	1
RightHandThumb4	0	0	0	0	0	0	1
LeftUpLeg	0	0	0	0	0	0	1
LeftLeg	0	0	0	0	0	0	1
LeftFoot	0	0	0	0	0	0	1
LeftToeBase	0	0	0	0	0	0	1
RightUpLeg	0	0	0	0	0	0	1
RightLeg	0	0	0	0	0	0	1
RightFoot	0	0	0	0	0	0	1
RightToeBase	0	0	0	0	0	0	1
[Hips]
47	-202.7526093	1004.485229	-5.671947479	8.190481186	8.848464012	-2.97729063	1.0
48	-182.8961029	1028.233276	-10.78239059	10.29805851	7.294917583	-0.9615064263	1.0
49	-159.5297546	1043.432617	-11.62642097	11.17381763	5.928668499	0.7597809434	1.0
50	-131.5676575	1047.136475	-4.639323235	10.50631523	5.016444683	1.434854388	1.0
[Spine]
47	0	101.8159943	1.315000057	16.68461418	-3.627352476	-1.143455148	1.0
48	0	101.8159943	1.315000057	15.16148186	-2.934444666	-1.764813066	1.0
49	0	101.8159943	1.315000057	13.59520054	-2.326625824	-1.451702118	1.0
50	0	101.8159943	1.315000057	12.23588085	-2.03550458	0.2772502005	1.0
[Spine1]
47	0	100.8349991	-10.00800037	5.192953587	-0.774099052	-2.200998306	1.0
48	0	100.8349991	-10.00800037	4.604390144	-0.6726785302	-2.216132164	1.0
49	0	100.8349991	-10.00800037	3.761528254	-0.5320960879	-1.611241698	1.0
50	0	100.8349991	-10.00800037	2.905021667	-0.3951710761	-0.4639784694	1.0
[Spine2]
47	0	91	-13.73399925	5.169485092	-0.9823541641	-2.212042332	1.0
48	0	91	-13.73399925	4.584361553	-0.8634315133	-2.219883919	1.0
49	0	91	-13.73399925	3.748030663	-0.657181263	-1.611034751	1.0
50	0	91	-13.73399925	2.89957881	-0.4358433485	-0.46535182	1.0
[Neck]
47	0	166.7169952	-25.16200066	-1.170771003	1.524756432	3.641383886	1.0
48	0	166.7169952	-25.16200066	-2.659118176	1.270615697	5.75554657	1.0
49	0	166.7169952	-25.16200066	-3.174199581	0.9474723935	5.538486004	1.0
50	0	166.7169952	-25.16200066	-2.132874966	0.7987352014	2.652684689	1.0
[Head]
47	0	96.17900085	16.84999847	-41.94386673	5.528903961	2.934589386	1.0
48	0	96.17900085	16.84999847	-38.77652359	5.570525169	0.01572902128	1.0
49	0	96.17900085	16.84999847	-34.33974838	4.978341103	-2.708151102	1.0
50	0	96.17900085	16.84999847	-29.92514229	4.458410263	-4.428972244	1.0
[LeftEye]
47	30.6760006	64.09500122	92.83599854	0	0	0	1.0
48	30.6760006	64.09500122	92.83599854	0	0	0	1.0
49	30.6760006	64.09500122	92.83599854	0	0	0	1.0
50	30.6760006	64.09500122	92.83599854	0	0	0	1.0
[RightEye]
47	-30.6760006	64.09500122	92.83499908	0	0	0	1.0
48	-30.6760006	64.09500122	92.83499908	0	0	0	1.0
49	-30.6760006	64.09500122	92.83499908	0	0	0	1.0
50	-30.6760006	64.09500122	92.83499908	0	0	0	1.0
[LeftShoulder]
47	45.70400238	109.4599991	-26.28000069	1.659840107	-33.73763275	2.497000933	1.0
48	45.70400238	109.4599991	-26.28000069	2.046318531	-33.63355255	1.194571376	1.0
49	45.70400238	109.4599991	-26.28000069	2.808434248	-32.83224869	-1.354524136	1.0
50	45.70400238	109.4599991	-26.28000069	3.666337252	-31.35720634	-4.375733852	1.0
[LeftArm]
47	105.923996	-5.24600029	-22.32099915	3.985207796	-33.94620514	31.17741966	1.0
48	105.923996	-5.24600029	-22.32099915	-0.2744569182	-34.387043	27.59334755	1.0
49	105.923996	-5.24600029	-22.32099915	-3.756489277	-36.59516525	13.66095638	1.0
50	105.923996	-5.24600029	-22.32099915	-6.212705612	-39.13653183	-10.33919239	1.0
[LeftForeArm]
47	278.414978	-0.0009999999311	0	2.71417648e-05	-76.94067383	-0.0002191941749	1.0
48	278.414978	-0.0009999999311	0	3.291750909e-05	-77.11715698	-0.0002451711916	1.0
49	278.414978	-0.0009999999311	0	2.38645589e-05	-76.72686005	-0.0002546324686	1.0
50	278.414978	-0.0009999999311	0	6.199049949e-06	-76.09562683	-0.0002283783397	1.0
[LeftHand]
47	283.2879944	0	0	10.12316799	0.8121184111	-7.892179966	1.0
48	283.2879944	0	0	18.00972366	-8.819272041	-0.5110574961	1.0
49	283.2879944	0	0	32.34825134	-21.28542709	6.11098814	1.0
50	283.2879944	0	0	49.59383011	-34.09753799	10.44516563	1.0
[LeftHandThumb1]
47	24.6609993	-15.75	26.8239994	-1.441469789	-8.319267273	8.653969765	1.0
48	24.6609993	-15.75	26.8239994	-1.441467285	-8.319266319	8.653966904	1.0
49	24.6609993	-15.75	26.8239994	-1.441467285	-8.319266319	8.653963089	1.0
50	24.6609993	-15.75	26.8239994	-1.441471338	-8.319264412	8.65396595	1.0
[LeftHandThumb2]
47	32.29800034	-18.64699936	18.64699936	6.693876743	35.79314423	-1.55124259	1.0
48	32.29800034	-18.64699936	18.64699936	6.69387722	35.79315186	-1.551237226	1.0
49	32.29800034	-18.64699936	18.64699936	6.69387722	35.79315186	-1.551232696	1.0
50	32.29800034	-18.64699936	18.64699936	6.693874836	35.79314804	-1.551233411	1.0
[LeftHandThumb3]
47	26.52600098	-15.31499958	15.31499958	-0.8579780459	28.98577881	24.39994049	1.0
48	26.52600098	-15.31499958	15.31499958	-0.8579825163	28.98577881	24.39995003	1.0
49	26.52600098	-15.31499958	15.31499958	-0.8579791188	28.98578072	24.39994812	1.0
50	26.52600098	-15.31499958	15.31499958	-0.8579749465	28.98578644	24.39993858	1.0
[LeftHandThumb4]
47	19.54599953	-11.28499985	11.28499985	0	0	0	1.0
48	19.54599953	-11.28499985	11.28499985	0	0	0	1.0
49	19.54599953	-11.28499985	11.28499985	0	0	0	1.0
50	19.54599953	-11.28499985	11.28499985	0	0	0	1.0
[LeftHandIndex1]
47	91.09299469	-5.170999527	22.60099792	2.074714422	6.374522686	-51.86821747	1.0
48	91.09299469	-5.170999527	22.60099792	2.074712992	6.374523163	-51.86822891	1.0
49	91.09299469	-5.170999527	22.60099792	2.07471323	6.37452507	-51.8682251	1.0
50	91.09299469	-5.170999527	22.60099792	2.074713469	6.37452364	-51.86821747	1.0
[LeftHandIndex2]
47	36.76399994	0	0	-5.084241867	5.778055191	-82.67963409	1.0
48	36.76399994	0	0	-5.08423996	5.778060913	-82.67965698	1.0
49	36.76399994	0	0	-5.08423996	5.778063297	-82.67967224	1.0
50	36.76399994	0	0	-5.084242821	5.778059959	-82.67965698	1.0
[LeftHandIndex3]
47	28.83100128	0	0	-6.449677467	5.791759968	-96.16447449	1.0
48	28.83100128	0	0	-6.449679852	5.791760921	-96.16449738	1.0
49	28.83100128	0	0	-6.449676514	5.791768074	-96.164505	1.0
50	28.83100128	0	0	-6.449672222	5.791772842	-96.16449738	1.0
[LeftHandIndex4]
47	23.92700005	0	0	0	0	0	1.0
48	23.92700005	0	0	0	0	0	1.0
49	23.92700005	0	0	0	0	0	1.0
50	23.92700005	0	0	0	0	0	1.0
[LeftHandMiddle1]
47	95.33399963	0	0	-6.494757175	5.273265362	-74.30393982	1.0
48	95.33399963	0	0	-6.49476099	5.273266315	-74.30394745	1.0
49	95.33399963	0	0	-6.49476099	5.27326107	-74.30393982	1.0
50	95.33399963	0	0	-6.49476099	5.273260117	-74.30392456	1.0
[LeftHandMiddle2]
47	36.98199844	0	0	-7.583496094	5.554392815	-107.5966034	1.0
48	36.98199844	0	0	-7.583496571	5.554388046	-107.5965881	1.0
49	36.98199844	0	0	-7.583499908	5.554386139	-107.5965881	1.0
50	36.98199844	0	0	-7.583498478	5.554392815	-107.5965958	1.0
[LeftHandMiddle3]
47	29.50900078	0	0	-1.617075205	4.031612873	-43.69761658	1.0
48	29.50900078	0	0	-1.61707592	4.031614304	-43.69761658	1.0
49	29.50900078	0	0	-1.617080569	4.031621933	-43.69761276	1.0
50	29.50900078	0	0	-1.617081881	4.031623363	-43.69760513	1.0
[LeftHandMiddle4]
47	28.3390007	0	0	0	0	0	1.0
48	28.3390007	0	0	0	0	0	1.0
49	28.3390007	0	0	0	0	0	1.0
50	28.3390007	0	0	0	0	0	1.0
[LeftHandRing1]
47	91.04499817	-0.4390000105	-18.65100098	-8.449707985	1.972103119	-92.66125488	1.0
48	91.04499817	-0.4390000105	-18.65100098	-8.449708939	1.972101331	-92.66125488	1.0
49	91.04499817	-0.4390000105	-18.65100098	-8.449708939	1.972099543	-92.66125488	1.0
50	91.04499817	-0.4390000105	-18.65100098	-8.449706078	1.972100139	-92.66124725	1.0
[LeftHandRing2]
47	31.54000092	0	0	-5.44383812	5.81276226	-86.23973846	1.0
48	31.54000092	0	0	-5.443837643	5.812765598	-86.23973083	1.0
49	31.54000092	0	0	-5.443833828	5.812763214	-86.23973083	1.0
50	31.54000092	0	0	-5.443829536	5.812758923	-86.23971558	1.0
[LeftHandRing3]
47	29.37700081	0	0	-1.453046322	3.853060722	-41.31214142	1.0
48	29.37700081	0	0	-1.453042626	3.853059769	-41.31213379	1.0
49	29.37700081	0	0	-1.453044295	3.853060007	-41.31212997	1.0
50	29.37700081	0	0	-1.453048229	3.853060961	-41.31212616	1.0
[LeftHandRing4]
47	26.47500038	0	0	0	0	0	1.0
48	26.47500038	0	0	0	0	0	1.0
49	26.47500038	0	0	0	0	0	1.0
50	26.47500038	0	0	0	0	0	1.0
[LeftHandPinky1]
47	80.77799988	-4.887000084	-38.06099701	-16.68238449	2.778099537	-98.34423828	1.0
48	80.77799988	-4.887000084	-38.06099701	-16.68238258	2.778097868	-98.34423828	1.0
49	80.77799988	-4.887000084	-38.06099701	-16.68238258	2.778097153	-98.34423828	1.0
50	80.77799988	-4.887000084	-38.06099701	-16.6823864	2.778091669	-98.34423065	1.0
[LeftHandPinky2]
47	36	0	0	-2.20002079	4.562777996	-51.46560669	1.0
48	36	0	0	-2.200026035	4.56278038	-51.46561432	1.0
49	36	0	0	-2.200029612	4.56278038	-51.46561432	1.0
50	36	0	0	-2.200031042	4.562779903	-51.46560669	1.0
[LeftHandPinky3]
47	21.14200211	0	0	-2.346135616	4.675039291	-53.27988815	1.0
48	21.14200211	0	0	-2.34613657	4.675039768	-53.27988434	1.0
49	21.14200211	0	0	-2.346135378	4.675046921	-53.27988434	1.0
50	21.14200211	0	0	-2.346134186	4.675048828	-53.27988434	1.0
[LeftHandPinky4]
47	19.75699997	0	0	0	0	0	1.0
48	19.75699997	0	0	0	0	0	1.0
49	19.75699997	0	0	0	0	0	1.0
50	19.75699997	0	0	0	0	0	1.0
[RightShoulder]
47	-45.70000076	109.4620056	-26.28000069	1.865720749	29.02078819	-1.857538223	1.0
48	-45.70000076	109.4620056	-26.28000069	2.349726439	28.5815506	-0.2498692721	1.0
49	-45.70000076	109.4620056	-26.28000069	3.193148375	27.51786804	2.735733509	1.0
50	-45.70000076	109.4620056	-26.28000069	4.112014294	25.9384079	6.248926163	1.0
[RightArm]
47	-105.9280014	-5.248000145	-22.32099915	-22.67388725	53.70302963	-12.99928474	1.0
48	-105.9280014	-5.248000145	-22.32099915	-22.06150436	52.21092987	-4.308354378	1.0
49	-105.9280014	-5.248000145	-22.32099915	-17.56374931	55.07440567	9.053746223	1.0
50	-105.9280014	-5.248000145	-22.32099915	-7.564510822	59.4343605	27.22095299	1.0
[RightForeArm]
47	-278.414978	0	0	-3.388770665e-06	68.80003357	-4.782529231e-06	1.0
48	-278.414978	0	0	-2.128231426e-05	76.02216339	-2.143038728e-05	1.0
49	-278.414978	0	0	-1.28710235e-05	78.3950882	-2.433274494e-05	1.0
50	-278.414978	0	0	2.187368409e-05	76.37384796	-4.411419468e-06	1.0
[RightHand]
47	-283.2879944	0	0.0009999999311	18.53623199	8.622047424	-11.24040127	1.0
48	-283.2879944	0	0.0009999999311	14.84734249	16.45134163	-28.62453842	1.0
49	-283.2879944	0	0.0009999999311	8.724076271	23.48804474	-43.16125107	1.0
50	-283.2879944	0	0.0009999999311	4.101761818	29.11560822	-50.02452469	1.0
[RightHandPinky1]
47	-80.76699829	-4.885000229	-38.06000137	-15.18223763	-1.629494071	97.58633423	1.0
48	-80.76699829	-4.885000229	-38.06000137	-15.18223763	-1.62949872	97.58634186	1.0
49	-80.76699829	-4.885000229	-38.06000137	-15.18223953	-1.629498839	97.58634186	1.0
50	-80.76699829	-4.885000229	-38.06000137	-15.18223953	-1.629495502	97.5863266	1.0
[RightHandPinky2]
47	-36	0	0.0009999999311	-1.749822259	-3.626913309	51.5187912	1.0
48	-36	0	0.0009999999311	-1.749815226	-3.626900196	51.51877594	1.0
49	-36	0	0.0009999999311	-1.749812484	-3.626896858	51.51877594	1.0
50	-36	0	0.0009999999311	-1.749815702	-3.626902819	51.51878738	1.0
[RightHandPinky3]
47	-21.14200211	0	0	-1.867225528	-3.717068434	53.33227158	1.0
48	-21.14200211	0	0	-1.867232919	-3.717079639	53.33226776	1.0
49	-21.14200211	0	0	-1.867236137	-3.717084408	53.33226395	1.0
50	-21.14200211	0	0	-1.867233038	-3.717078209	53.3322525	1.0
[RightHandPinky4]
47	-19.75699997	0	0	0	0	0	1.0
48	-19.75699997	0	0	0	0	0	1.0
49	-19.75699997	0	0	0	0	0	1.0
50	-19.75699997	0	0	0	0	0	1.0
[RightHandRing1]
47	-91.03599548	-0.4390000105	-18.65100098	-7.065040112	-0.7974022031	91.91007233	1.0
48	-91.03599548	-0.4390000105	-18.65100098	-7.065037251	-0.7974054813	91.91007996	1.0
49	-91.03599548	-0.4390000105	-18.65100098	-7.065034866	-0.7974054217	91.91007233	1.0
50	-91.03599548	-0.4390000105	-18.65100098	-7.065034866	-0.7974021435	91.91005707	1.0
[RightHandRing2]
47	-31.54000092	0	0	-4.327741623	-4.620640755	86.24686432	1.0
48	-31.54000092	0	0	-4.327744484	-4.620636463	86.24687958	1.0
49	-31.54000092	0	0	-4.327744961	-4.620630264	86.24688721	1.0
50	-31.54000092	0	0	-4.327742577	-4.620628834	86.24687958	1.0
[RightHandRing3]
47	-29.37700081	0	0	-1.156967878	-3.063930035	41.36635208	1.0
48	-29.37700081	0	0	-1.156968713	-3.063931227	41.36634064	1.0
49	-29.37700081	0	0	-1.156969905	-3.063933849	41.36634064	1.0
50	-29.37700081	0	0	-1.156970143	-3.063934088	41.36635208	1.0
[RightHandRing4]
47	-26.47500038	0	0	0	0	0	1.0
48	-26.47500038	0	0	0	0	0	1.0
49	-26.47500038	0	0	0	0	0	1.0
50	-26.47500038	0	0	0	0	0	1.0
[RightHandMiddle1]
47	-95.32500458	0	0	-5.490190029	-4.098498344	73.57287598	1.0
48	-95.32500458	0	0	-5.490191936	-4.098498344	73.57289124	1.0
49	-95.32500458	0	0	-5.490190029	-4.098499298	73.57289886	1.0
50	-95.32500458	0	0	-5.490189075	-4.098497868	73.57288361	1.0
[RightHandMiddle2]
47	-36.98199844	0	0	-6.026580334	-4.415502071	107.5651245	1.0
48	-36.98199844	0	0	-6.026578903	-4.415502071	107.5651093	1.0
49	-36.98199844	0	0	-6.026574135	-4.415498734	107.5651093	1.0
50	-36.98199844	0	0	-6.026571751	-4.415498734	107.5651093	1.0
[RightHandMiddle3]
47	-29.50900078	0	0	-1.287466526	-3.207851887	43.75226974	1.0
48	-29.50900078	0	0	-1.287466645	-3.207855701	43.75226212	1.0
49	-29.50900078	0	0	-1.287468433	-3.20785594	43.7522583	1.0
50	-29.50900078	0	0	-1.287469983	-3.207850933	43.75225449	1.0
[RightHandMiddle4]
47	-28.3390007	0	0.0009999999311	0	0	0	1.0
48	-28.3390007	0	0.0009999999311	0	0	0	1.0
49	-28.3390007	0	0.0009999999311	0	0	0	1.0
50	-28.3390007	0	0.0009999999311	0	0	0	1.0
[RightHandIndex1]
47	-91.08300018	-5.167999744	22.60099792	2.643070698	-5.360724449	51.18568802	1.0
48	-91.08300018	-5.167999744	22.60099792	2.643070459	-5.360728264	51.1856842	1.0
49	-91.08300018	-5.167999744	22.60099792	2.643067598	-5.360724449	51.1856842	1.0
50	-91.08300018	-5.167999744	22.60099792	2.643066406	-5.360717773	51.18567657	1.0
[RightHandIndex2]
47	-36.76399994	0	0	-4.042251587	-4.593089104	82.69343567	1.0
48	-36.76399994	0	0	-4.042244911	-4.593083382	82.69342041	1.0
49	-36.76399994	0	0	-4.042240143	-4.593085289	82.69342804	1.0
50	-36.76399994	0	0	-4.042244911	-4.593090534	82.69345093	1.0
[RightHandIndex3]
47	-28.83100128	0	0	-5.126290798	-4.603966236	96.15283966	1.0
48	-28.83100128	0	0	-5.126291752	-4.603960991	96.15283966	1.0
49	-28.83100128	0	0	-5.126286507	-4.603954792	96.15283966	1.0
50	-28.83100128	0	0	-5.1262784	-4.603955746	96.15283966	1.0
[RightHandIndex4]
47	-23.92700005	0	0	0	0	0	1.0
48	-23.92700005	0	0	0	0	0	1.0
49	-23.92700005	0	0	0	0	0	1.0
50	-23.92700005	0	0	0	0	0	1.0
[RightHandThumb1]
47	-24.64799881	-15.72700024	26.82600021	-2.388242483	10.16858864	-8.287027359	1.0
48	-24.64799881	-15.72700024	26.82600021	-2.388237715	10.16858387	-8.287028313	1.0
49	-24.64799881	-15.72700024	26.82600021	-2.388235569	10.16858292	-8.28703022	1.0
50	-24.64799881	-15.72700024	26.82600021	-2.388240576	10.16858578	-8.287031174	1.0
[RightHandThumb2]
47	-32.29800034	-18.64699936	18.64699936	7.070495605	-37.46694946	0.6013849974	1.0
48	-32.29800034	-18.64699936	18.64699936	7.070501804	-37.46694946	0.6013873816	1.0
49	-32.29800034	-18.64699936	18.64699936	7.070505142	-37.46694946	0.6013795137	1.0
50	-32.29800034	-18.64699936	18.64699936	7.070502281	-37.46693802	0.6013687849	1.0
[RightHandThumb3]
47	-26.52600098	-15.31399918	15.31399918	3.291630745	-34.41186523	-26.10048866	1.0
48	-26.52600098	-15.31399918	15.31399918	3.291628122	-34.41185379	-26.10049248	1.0
49	-26.52600098	-15.31399918	15.31399918	3.291619539	-34.41185379	-26.10048103	1.0
50	-26.52600098	-15.31399918	15.31399918	3.291619062	-34.41185379	-26.10047531	1.0
[RightHandThumb4]
47	-19.54599953	-11.28499985	11.28499985	0	0	0	1.0
48	-19.54599953	-11.28499985	11.28499985	0	0	0	1.0
49	-19.54599953	-11.28499985	11.28499985	0	0	0	1.0
50	-19.54599953	-11.28499985	11.28499985	0	0	0	1.0
[LeftUpLeg]
47	82.07800293	-67.51699829	-15.99599934	-106.7455902	39.98603058	-16.00982857	1.0
48	82.07800293	-67.51699829	-15.99599934	-101.4192963	41.37780762	-15.97396088	1.0
49	82.07800293	-67.51699829	-15.99599934	-86.86200714	40.30472565	-10.1155138	1.0
50	82.07800293	-67.51699829	-15.99599934	-66.57076263	35.10810471	-0.8400868773	1.0
[LeftLeg]
47	0	-443.7049866	2.845999956	107.1871719	-3.482636213	8.559458733	1.0
48	0	-443.7049866	2.845999956	98.53435516	-1.963608027	9.040125847	1.0
49	0	-443.7049866	2.845999956	84.84066772	0.2014667094	8.450536728	1.0
50	0	-443.7049866	2.845999956	67.15240479	2.494455099	7.002355576	1.0
[LeftFoot]
47	0	-444.2789917	-29.8219986	-5.119078159	6.246619225	1.289236784	1.0
48	0	-444.2789917	-29.8219986	5.503737926	2.49977994	-1.961698771	1.0
49	0	-444.2789917	-29.8219986	18.32803154	-0.0381045863	-5.085614681	1.0
50	0	-444.2789917	-29.8219986	27.37764359	0.0313340798	-6.386650085	1.0
[LeftToeBase]
47	0	-87.28699493	107.1060028	2.244422674	4.499767329e-06	-6.172401299e-06	1.0
48	0	-87.28699493	107.1060028	2.248389244	7.985400998e-07	-2.887163646e-06	1.0
49	0	-87.28699493	107.1060028	1.903808713	-6.274573479e-06	4.367689598e-06	1.0
50	0	-87.28699493	107.1060028	0.6497157216	0.00930055324	0.09444983304	1.0
[RightUpLeg]
47	-82.07800293	-67.51699829	-15.99599934	-24.84010124	-13.68967438	-9.485965729	1.0
48	-82.07800293	-67.51699829	-15.99599934	-27.59915543	-13.25473022	-10.65021896	1.0
49	-82.07800293	-67.51699829	-15.99599934	-32.55536652	-12.30820942	-10.79153442	1.0
50	-82.07800293	-67.51699829	-15.99599934	-37.03917694	-12.40688038	-9.294451714	1.0
[RightLeg]
47	0	-443.7049866	2.861999989	29.49979019	-6.536417961	-3.97921443	1.0
48	0	-443.7049866	2.861999989	26.49067497	-7.772162914	-4.508521557	1.0
49	0	-443.7049866	2.861999989	31.44748116	-6.742516994	-4.696473122	1.0
50	0	-443.7049866	2.861999989	40.52046585	-2.892902374	-2.757634878	1.0
[RightFoot]
47	0	-444.2770081	-29.83799934	9.306688309	-3.153456926	8.766478539	1.0
48	0	-444.2770081	-29.83799934	21.48719978	-6.592159271	7.297585487	1.0
49	0	-444.2770081	-29.83799934	23.07028961	-8.18534565	9.08798027	1.0
50	0	-444.2770081	-29.83799934	15.31363773	-6.860529423	15.8074894	1.0
[RightToeBase]
47	0	-87.28699493	107.1060028	-20.96912766	-0.07470536232	-0.2754046619	1.0
48	0	-87.28699493	107.1060028	-20.53975487	0.8124665022	2.995014429	1.0
49	0	-87.28699493	107.1060028	-12.55062866	0.8124691844	2.995016098	1.0
50	0	-87.28699493	107.1060028	-2.743156672	-0.06651254743	-0.1842238307	1.0
[EndOfFile]
